# xmcd CD database file
#
# Track frame offsets:
#	150
#	21148
#	50058
#	62998
#	84125
#	98557
#	121509
#	136434
#	153184
#	168040
#	179578
#	202391
#	225190
#	242505
#	264492
#
# Disc length: 3778 seconds
#
# Revision: 0
# Processed by: cddbd v1.5.2PL0 Copyright (c) Steve Scherf et al.
# Submitted via: CDex 1.51
#
DISCID=b90ec00f
DTITLE=Monica Borfors - Monica sjunger Monica
DYEAR=2007
DGENRE=Jazz
TTITLE0=Sakta vi gå genom stan
TTITLE1=Trubbel
TTITLE2=Bedårande sommarvals
TTITLE3=Men tiden går
TTITLE4=Siv Larssons dagbok
TTITLE5=Some other time
TTITLE6=Att angöra en brygga
TTITLE7=Du måste ta det kallt
TTITLE8=Monicas vals
TTITLE9=Vad en liten gumma kan gno
TTITLE10=En slump
TTITLE11=En gång i Stockholm
TTITLE12=I valet och kvalet
TTITLE13=I morgon
TTITLE14=Till Z:a
EXTD=YEAR: 2007
EXTT0=
EXTT1=
EXTT2=
EXTT3=
EXTT4=
EXTT5=
EXTT6=
EXTT7=
EXTT8=
EXTT9=
EXTT10=
EXTT11=
EXTT12=
EXTT13=
EXTT14=
PLAYORDER=
